<svg width="170" height="52" viewBox="0 0 170 52" fill="none" xmlns="http://www.w3.org/2000/svg">
  <g id="SkillSphere_Logo_Dark">
    <g id="Globe" transform="translate(3 3)">
      <circle cx="23" cy="23" r="23" fill="#31A8FF"/>
      <path d="M23 0C14.7452 0 7.69849 4.93296 4.57471 12H41.4253C38.3015 4.93296 31.2548 0 23 0Z" fill="#43C27B"/>
      <path d="M4.57471 34C7.69849 41.067 14.7452 46 23 46C31.2548 46 38.3015 41.067 41.4253 34H4.57471Z" fill="#43C27B"/>
      <path d="M6 23C6 33.4934 13.531 42 23 42C32.469 42 40 33.4934 40 23C40 12.5066 32.469 4 23 4C13.531 4 6 12.5066 6 23Z" stroke="white" stroke-opacity="0.85" stroke-width="1.5"/>
      <path d="M0 23H46" stroke="white" stroke-opacity="0.85" stroke-width="1.5"/>
      <path d="M23 0V46" stroke="white" stroke-opacity="0.85" stroke-width="1.5"/>
      <path d="M9 8C12.5 11 18 13 23 13C28 13 33.5 11 37 8" stroke="white" stroke-opacity="0.85" stroke-width="1.5" stroke-linecap="round"/>
      <path d="M9 38C12.5 35 18 33 23 33C28 33 33.5 35 37 38" stroke="white" stroke-opacity="0.85" stroke-width="1.5" stroke-linecap="round"/>
    </g>

    <text x="92" y="30" font-family="'Montserrat', 'Segoe UI', sans-serif" font-size="22" font-weight="700" fill="white">
      <tspan>SKILL</tspan><tspan fill="#A7D8FF">SPHERE</tspan>
    </text>
    <rect x="65" y="15" width="3" height="22" rx="1.5" fill="#A7D8FF"/>
  </g>
</svg>
